<?xml version="1.0" encoding="utf-8"?>
<!-- Generator: Adobe Illustrator 24.1.3, SVG Export Plug-In . SVG Version: 6.00 Build 0)  -->
<svg version="1.1" id="Capa_1" xmlns="http://www.w3.org/2000/svg" xmlns:xlink="http://www.w3.org/1999/xlink" x="0px" y="0px"
	 viewBox="0 0 104 100" style="enable-background:new 0 0 104 100;" xml:space="preserve">
<style type="text/css">
	.st0{fill:#69C8F2;}
	.st1{fill:#FFFFFF;}
	.st2{fill:none;stroke:#69C8F2;stroke-width:2.5797;stroke-linecap:round;stroke-linejoin:round;stroke-miterlimit:10;}
</style>
<g>
	<path class="st0" d="M231.5,892.4c-0.6-0.3-1.1-0.8-1.4-1.5c-0.3-0.7-0.5-1.5-0.5-2.4v-1.1c0-0.6,0.1-1.2,0.2-1.8
		c0.1-0.6,0.3-1.2,0.6-1.9c0-0.1,0.1-0.2,0.1-0.3c0-0.1,0.1-0.2,0.1-0.3l3-6.7h2.8l-3.7,8.1l-0.5-0.4c0.2-0.4,0.5-0.6,0.9-0.8
		c0.4-0.2,0.7-0.3,1.2-0.3c0.8,0,1.4,0.2,2,0.5c0.5,0.3,1,0.8,1.3,1.4c0.3,0.6,0.4,1.4,0.4,2.3v1.2c0,0.9-0.2,1.7-0.5,2.4
		s-0.8,1.2-1.4,1.5s-1.4,0.5-2.3,0.5C232.9,892.9,232.2,892.8,231.5,892.4z M235,890c0.3-0.3,0.4-0.8,0.4-1.4v-1.1
		c0-0.6-0.1-1.1-0.4-1.4c-0.3-0.3-0.7-0.5-1.2-0.5c-0.5,0-0.9,0.2-1.2,0.5c-0.3,0.3-0.4,0.8-0.4,1.4v1.1c0,0.6,0.1,1.1,0.4,1.4
		c0.3,0.3,0.7,0.5,1.2,0.5C234.3,890.5,234.7,890.3,235,890z"/>
</g>
<g>
	<g>
		<path class="st1" d="M253.1,952.7c-0.7-0.4-1.2-0.9-1.6-1.7c-0.4-0.7-0.5-1.6-0.5-2.6v-6.1c0-1,0.2-1.9,0.5-2.6
			c0.4-0.7,0.9-1.3,1.6-1.7c0.7-0.4,1.5-0.6,2.4-0.6c0.9,0,1.7,0.2,2.4,0.5c0.6,0.4,1.2,0.9,1.5,1.7c0.4,0.7,0.6,1.6,0.7,2.7h-2.5
			c0-0.6-0.2-1-0.3-1.4c-0.2-0.4-0.4-0.7-0.7-0.8c-0.3-0.2-0.6-0.3-1-0.3c-0.4,0-0.8,0.1-1.1,0.3c-0.3,0.2-0.5,0.5-0.7,0.8
			c-0.2,0.4-0.3,0.8-0.3,1.3v6.1c0,0.5,0.1,0.9,0.3,1.3c0.2,0.4,0.4,0.6,0.7,0.8c0.3,0.2,0.7,0.3,1.1,0.3c0.4,0,0.7-0.1,1-0.3
			s0.5-0.5,0.7-0.8c0.2-0.4,0.3-0.8,0.3-1.4h2.5c-0.1,1.1-0.3,2-0.7,2.7c-0.4,0.7-0.9,1.3-1.5,1.7c-0.7,0.4-1.4,0.5-2.4,0.5
			C254.6,953.3,253.8,953.1,253.1,952.7z"/>
		<path class="st1" d="M263.2,952.7c-0.7-0.4-1.3-0.9-1.6-1.6c-0.4-0.7-0.6-1.5-0.6-2.5v-6.3c0-1,0.2-1.8,0.6-2.5
			c0.4-0.7,0.9-1.3,1.6-1.6s1.5-0.6,2.5-0.6s1.8,0.2,2.5,0.6s1.3,0.9,1.6,1.6c0.4,0.7,0.6,1.5,0.6,2.5v6.3c0,1-0.2,1.8-0.6,2.5
			c-0.4,0.7-0.9,1.3-1.6,1.6s-1.5,0.6-2.5,0.6S263.9,953.1,263.2,952.7z M266.9,950.6c0.3-0.2,0.6-0.5,0.8-0.8s0.3-0.8,0.3-1.3v-6.3
			c0-0.5-0.1-0.9-0.3-1.2c-0.2-0.4-0.4-0.6-0.8-0.8c-0.3-0.2-0.7-0.3-1.2-0.3s-0.9,0.1-1.2,0.3s-0.6,0.5-0.8,0.8
			c-0.2,0.4-0.3,0.8-0.3,1.2v6.3c0,0.5,0.1,0.9,0.3,1.3s0.4,0.6,0.8,0.8c0.3,0.2,0.7,0.3,1.2,0.3S266.6,950.8,266.9,950.6z"/>
		<path class="st1" d="M272,937.6h2.3l5.3,11.5l-0.3,0.3v-11.8h2.3v15.5h-2.4l-5.3-11.2l0.3-0.3v11.5H272V937.6z"/>
		<path class="st1" d="M283,937.6h9.4v2.3H283V937.6z M286.4,938.9h2.4v14.2h-2.4V938.9z"/>
		<path class="st1" d="M295.8,937.6h1.9l4.7,15.5h-2.6l-3.1-11.4l-3.1,11.4h-2.6L295.8,937.6z M293.6,947.9h6.3v2.3h-6.3V947.9z"/>
		<path class="st1" d="M304.3,952.7c-0.7-0.4-1.2-0.9-1.6-1.7c-0.4-0.7-0.5-1.6-0.5-2.6v-6.1c0-1,0.2-1.9,0.5-2.6
			c0.4-0.7,0.9-1.3,1.6-1.7c0.7-0.4,1.5-0.6,2.4-0.6c0.9,0,1.7,0.2,2.4,0.5c0.6,0.4,1.2,0.9,1.5,1.7c0.4,0.7,0.6,1.6,0.7,2.7h-2.5
			c0-0.6-0.2-1-0.3-1.4c-0.2-0.4-0.4-0.7-0.7-0.8c-0.3-0.2-0.6-0.3-1-0.3c-0.4,0-0.8,0.1-1.1,0.3c-0.3,0.2-0.5,0.5-0.7,0.8
			c-0.2,0.4-0.3,0.8-0.3,1.3v6.1c0,0.5,0.1,0.9,0.3,1.3c0.2,0.4,0.4,0.6,0.7,0.8c0.3,0.2,0.7,0.3,1.1,0.3c0.4,0,0.7-0.1,1-0.3
			s0.5-0.5,0.7-0.8c0.2-0.4,0.3-0.8,0.3-1.4h2.5c-0.1,1.1-0.3,2-0.7,2.7c-0.4,0.7-0.9,1.3-1.5,1.7c-0.7,0.4-1.4,0.5-2.4,0.5
			C305.9,953.3,305,953.1,304.3,952.7z"/>
		<path class="st1" d="M311.2,937.6h9.4v2.3h-9.4V937.6z M314.7,938.9h2.4v14.2h-2.4V938.9z"/>
		<path class="st1" d="M323.1,952.7c-0.7-0.4-1.3-0.9-1.6-1.6c-0.4-0.7-0.6-1.5-0.6-2.5v-6.3c0-1,0.2-1.8,0.6-2.5
			c0.4-0.7,0.9-1.3,1.6-1.6s1.5-0.6,2.5-0.6s1.8,0.2,2.5,0.6s1.3,0.9,1.6,1.6c0.4,0.7,0.6,1.5,0.6,2.5v6.3c0,1-0.2,1.8-0.6,2.5
			c-0.4,0.7-0.9,1.3-1.6,1.6s-1.5,0.6-2.5,0.6S323.8,953.1,323.1,952.7z M326.8,950.6c0.3-0.2,0.6-0.5,0.8-0.8s0.3-0.8,0.3-1.3v-6.3
			c0-0.5-0.1-0.9-0.3-1.2c-0.2-0.4-0.4-0.6-0.8-0.8c-0.3-0.2-0.7-0.3-1.2-0.3s-0.9,0.1-1.2,0.3s-0.6,0.5-0.8,0.8
			c-0.2,0.4-0.3,0.8-0.3,1.2v6.3c0,0.5,0.1,0.9,0.3,1.3s0.4,0.6,0.8,0.8c0.3,0.2,0.7,0.3,1.2,0.3S326.4,950.8,326.8,950.6z"/>
	</g>
</g>
<line class="st2" x1="249.5" y1="865.7" x2="249.5" y2="930.8"/>
<path class="st1" d="M238.2,949.7h-2.7c-0.6,0-1.2-0.5-1.2-1.2v-7.2c0-0.6,0.5-1.2,1.2-1.2h2.6c0.3,0,0.6,0.1,0.8,0.3l4,3.9
	c0.5,0.5,0.5,1.3-0.1,1.7l-3.9,3.3C238.7,949.6,238.5,949.7,238.2,949.7z"/>
<g id="XMLID_1_">
	<g>
		<g id="XMLID_35_">
			<path id="XMLID_38_" class="st0" d="M322.4,885.4l-6.1-6.5v-13.5c0-0.7-0.5-1.3-1.2-1.3h-17.5c-0.7,0-1.2,0.6-1.2,1.3
				s0.5,1.3,1.2,1.3H314v25.9l-21.7,23.2l-21.6-23.1v-26h16.3c0.7,0,1.2-0.6,1.2-1.3s-0.5-1.3-1.2-1.3h-17.5c-0.7,0-1.2,0.6-1.2,1.3
				v13.5l-6.1,6.5c-0.2,0.2-0.3,0.6-0.3,0.9v36.6c0,3.5,2.7,6.4,6,6.4h49c3.3,0,6-2.9,6-6.4v-36.6
				C322.8,885.9,322.6,885.6,322.4,885.4z M320.4,922.9c0,0.6-0.1,1.1-0.3,1.6l-16.3-17.4l16.6-17.8V922.9z M316.3,882.5l3.6,3.8
				l-3.6,3.8V882.5z M264.5,924.5c-0.2-0.5-0.3-1.1-0.3-1.6v-33.4l16.6,17.7L264.5,924.5z M268.2,890.2l-3.6-3.9l3.6-3.9V890.2z
				 M267.8,926.7c-0.6,0-1.1-0.1-1.5-0.4l16.2-17.4l8.9,9.5c0.2,0.2,0.5,0.4,0.8,0.4c0.3,0,0.6-0.1,0.8-0.4l9-9.6l16.3,17.4
				c-0.5,0.2-1,0.4-1.5,0.4L267.8,926.7L267.8,926.7z"/>
			<path id="XMLID_37_" class="st0" d="M292.3,866.7c0.3,0,0.6-0.1,0.8-0.4c0.2-0.2,0.3-0.6,0.3-0.9c0-0.3-0.1-0.7-0.3-0.9
				c-0.2-0.2-0.5-0.4-0.8-0.4c-0.3,0-0.6,0.1-0.8,0.4c-0.2,0.2-0.3,0.6-0.3,0.9c0,0.3,0.1,0.7,0.3,0.9
				C291.6,866.5,291.9,866.7,292.3,866.7z"/>
			<path id="XMLID_36_" class="st0" d="M281,879.5c-1.6,3.1-2,6.7-1.2,10.2c0.7,3,2.3,5.5,4.6,7.4c2.2,1.8,4.9,2.8,7.6,2.9
				c0,0,0,0,0,0c0.6,0,1.2-0.5,1.2-1.2c0-0.7-0.5-1.3-1.2-1.3c-4.7-0.1-8.8-3.6-9.9-8.4c-1.4-5.8,1.7-11.8,7-13.6
				c2.7-0.9,5.6-0.7,8.1,0.8c2.5,1.4,4.4,3.8,5.2,6.7c0.5,2.1,0.4,4.1-0.6,6.6c-0.3,0.7-1.1,2.4-3,2.4c-0.3,0-0.6-0.1-0.9-0.4
				c-0.3-0.4-0.5-0.9-0.5-1.4v-10.5c0-0.7-0.5-1.3-1.2-1.3c-0.7,0-1.2,0.6-1.2,1.3v0.4c-0.9-0.8-2.1-1.3-3.4-1.3
				c-3,0-6.1,2.8-6.1,7.4c0,2.1,0.6,4,1.7,5.4c1.1,1.5,2.7,2.3,4.3,2.3c1.5,0,2.8-0.7,3.9-1.9c0.2,0.5,0.5,1,0.9,1.3
				c0.7,0.8,1.6,1.2,2.5,1.2c2.8,0,4.5-2,5.2-4c1.1-3,1.3-5.5,0.7-8.2c0,0,0,0,0,0c-1-3.6-3.3-6.5-6.4-8.3c-3.1-1.7-6.6-2.1-10-0.9
				C285.3,874.1,282.6,876.4,281,879.5L281,879.5z M291.7,891.2c-2,0-3.6-2.3-3.6-5.2c0-3.1,1.9-4.9,3.7-4.9c2,0,3.4,2,3.4,4.9
				C295.1,888.9,293.6,891.2,291.7,891.2L291.7,891.2z"/>
		</g>
	</g>
</g>
<g>
	<g>
		<path class="st0" d="M3.6,33.7c-0.6-0.3-1.1-0.8-1.4-1.5c-0.3-0.7-0.5-1.5-0.5-2.4v-1.1c0-0.6,0.1-1.2,0.2-1.8
			c0.1-0.6,0.3-1.2,0.6-1.9c0-0.1,0.1-0.2,0.1-0.3c0-0.1,0.1-0.2,0.1-0.3l3-6.7h2.8l-3.7,8.1l-0.5-0.4c0.2-0.4,0.5-0.6,0.9-0.8
			c0.4-0.2,0.7-0.3,1.2-0.3c0.8,0,1.4,0.2,2,0.5c0.5,0.3,1,0.8,1.3,1.4C9.9,27,10,27.7,10,28.6v1.2c0,0.9-0.2,1.7-0.5,2.4
			c-0.3,0.7-0.8,1.2-1.4,1.5s-1.4,0.5-2.3,0.5C5,34.2,4.2,34.1,3.6,33.7z M7,31.3c0.3-0.3,0.4-0.8,0.4-1.4v-1.1
			c0-0.6-0.1-1.1-0.4-1.4c-0.3-0.3-0.7-0.5-1.2-0.5c-0.5,0-0.9,0.2-1.2,0.5c-0.3,0.3-0.4,0.8-0.4,1.4v1.1c0,0.6,0.1,1.1,0.4,1.4
			c0.3,0.3,0.7,0.5,1.2,0.5C6.4,31.8,6.8,31.6,7,31.3z"/>
	</g>
	<g>
		<g>
			<path class="st1" d="M25.1,94c-0.7-0.4-1.2-0.9-1.6-1.7c-0.4-0.7-0.5-1.6-0.5-2.6v-6.1c0-1,0.2-1.9,0.5-2.6
				c0.4-0.7,0.9-1.3,1.6-1.7c0.7-0.4,1.5-0.6,2.4-0.6c0.9,0,1.7,0.2,2.4,0.5c0.6,0.4,1.2,0.9,1.5,1.7c0.4,0.7,0.6,1.6,0.7,2.7h-2.5
				c0-0.6-0.2-1-0.3-1.4c-0.2-0.4-0.4-0.7-0.7-0.8c-0.3-0.2-0.6-0.3-1-0.3c-0.4,0-0.8,0.1-1.1,0.3c-0.3,0.2-0.5,0.5-0.7,0.8
				c-0.2,0.4-0.3,0.8-0.3,1.3v6.1c0,0.5,0.1,0.9,0.3,1.3c0.2,0.4,0.4,0.6,0.7,0.8c0.3,0.2,0.7,0.3,1.1,0.3c0.4,0,0.7-0.1,1-0.3
				s0.5-0.5,0.7-0.8c0.2-0.4,0.3-0.8,0.3-1.4h2.5c-0.1,1.1-0.3,2-0.7,2.7c-0.4,0.7-0.9,1.3-1.5,1.7c-0.7,0.4-1.4,0.5-2.4,0.5
				C26.6,94.6,25.8,94.4,25.1,94z"/>
			<path class="st1" d="M35.3,94c-0.7-0.4-1.3-0.9-1.6-1.6c-0.4-0.7-0.6-1.5-0.6-2.5v-6.3c0-1,0.2-1.8,0.6-2.5
				c0.4-0.7,0.9-1.3,1.6-1.6s1.5-0.6,2.5-0.6s1.8,0.2,2.5,0.6s1.3,0.9,1.6,1.6c0.4,0.7,0.6,1.5,0.6,2.5v6.3c0,1-0.2,1.8-0.6,2.5
				c-0.4,0.7-0.9,1.3-1.6,1.6s-1.5,0.6-2.5,0.6S36,94.4,35.3,94z M39,91.9c0.3-0.2,0.6-0.5,0.8-0.8s0.3-0.8,0.3-1.3v-6.3
				c0-0.5-0.1-0.9-0.3-1.2c-0.2-0.4-0.4-0.6-0.8-0.8c-0.3-0.2-0.7-0.3-1.2-0.3s-0.9,0.1-1.2,0.3s-0.6,0.5-0.8,0.8
				c-0.2,0.4-0.3,0.8-0.3,1.2v6.3c0,0.5,0.1,0.9,0.3,1.3s0.4,0.6,0.8,0.8c0.3,0.2,0.7,0.3,1.2,0.3S38.6,92.1,39,91.9z"/>
			<path class="st1" d="M44.1,78.9h2.3l5.3,11.5l-0.3,0.3V78.9h2.3v15.5h-2.4l-5.3-11.2l0.3-0.3v11.5h-2.3V78.9z"/>
			<path class="st1" d="M55,78.9h9.4v2.3H55V78.9z M58.5,80.2h2.4v14.2h-2.4V80.2z"/>
			<path class="st1" d="M67.8,78.9h1.9l4.7,15.5h-2.6L68.8,83l-3.1,11.4h-2.6L67.8,78.9z M65.7,89.2H72v2.3h-6.3V89.2z"/>
			<path class="st1" d="M76.4,94c-0.7-0.4-1.2-0.9-1.6-1.7c-0.4-0.7-0.5-1.6-0.5-2.6v-6.1c0-1,0.2-1.9,0.5-2.6
				c0.4-0.7,0.9-1.3,1.6-1.7c0.7-0.4,1.5-0.6,2.4-0.6c0.9,0,1.7,0.2,2.4,0.5c0.6,0.4,1.2,0.9,1.5,1.7c0.4,0.7,0.6,1.6,0.7,2.7h-2.5
				c0-0.6-0.2-1-0.3-1.4c-0.2-0.4-0.4-0.7-0.7-0.8c-0.3-0.2-0.6-0.3-1-0.3c-0.4,0-0.8,0.1-1.1,0.3c-0.3,0.2-0.5,0.5-0.7,0.8
				c-0.2,0.4-0.3,0.8-0.3,1.3v6.1c0,0.5,0.1,0.9,0.3,1.3c0.2,0.4,0.4,0.6,0.7,0.8c0.3,0.2,0.7,0.3,1.1,0.3c0.4,0,0.7-0.1,1-0.3
				s0.5-0.5,0.7-0.8c0.2-0.4,0.3-0.8,0.3-1.4h2.5c-0.1,1.1-0.3,2-0.7,2.7c-0.4,0.7-0.9,1.3-1.5,1.7c-0.7,0.4-1.4,0.5-2.4,0.5
				C77.9,94.6,77.1,94.4,76.4,94z"/>
			<path class="st1" d="M83.3,78.9h9.4v2.3h-9.4V78.9z M86.8,80.2h2.4v14.2h-2.4V80.2z"/>
			<path class="st1" d="M95.1,94c-0.7-0.4-1.3-0.9-1.6-1.6c-0.4-0.7-0.6-1.5-0.6-2.5v-6.3c0-1,0.2-1.8,0.6-2.5
				c0.4-0.7,0.9-1.3,1.6-1.6s1.5-0.6,2.5-0.6s1.8,0.2,2.5,0.6s1.3,0.9,1.6,1.6c0.4,0.7,0.6,1.5,0.6,2.5v6.3c0,1-0.2,1.8-0.6,2.5
				c-0.4,0.7-0.9,1.3-1.6,1.6s-1.5,0.6-2.5,0.6S95.8,94.4,95.1,94z M98.8,91.9c0.3-0.2,0.6-0.5,0.8-0.8s0.3-0.8,0.3-1.3v-6.3
				c0-0.5-0.1-0.9-0.3-1.2c-0.2-0.4-0.4-0.6-0.8-0.8c-0.3-0.2-0.7-0.3-1.2-0.3s-0.9,0.1-1.2,0.3s-0.6,0.5-0.8,0.8
				c-0.2,0.4-0.3,0.8-0.3,1.2v6.3c0,0.5,0.1,0.9,0.3,1.3s0.4,0.6,0.8,0.8c0.3,0.2,0.7,0.3,1.2,0.3S98.5,92.1,98.8,91.9z"/>
		</g>
	</g>
	<line class="st2" x1="21.5" y1="7" x2="21.5" y2="72.1"/>
	<path class="st1" d="M10.3,91H7.6c-0.6,0-1.2-0.5-1.2-1.2v-7.2c0-0.6,0.5-1.2,1.2-1.2h2.6c0.3,0,0.6,0.1,0.8,0.3l4,3.9
		c0.5,0.5,0.5,1.3-0.1,1.7L11,90.7C10.8,90.9,10.5,91,10.3,91z"/>
	<g id="XMLID_2_">
		<g>
			<g id="XMLID_45_">
				<path id="XMLID_48_" class="st0" d="M94.5,26.7l-6.1-6.5V6.7c0-0.7-0.5-1.3-1.2-1.3H69.7c-0.7,0-1.2,0.6-1.2,1.3S69,8,69.7,8H86
					v25.9L64.3,57.1L42.7,34V8h16.3c0.7,0,1.2-0.6,1.2-1.3s-0.5-1.3-1.2-1.3H41.5c-0.7,0-1.2,0.6-1.2,1.3v13.5l-6.1,6.5
					c-0.2,0.2-0.3,0.6-0.3,0.9v36.6c0,3.5,2.7,6.4,6,6.4h49c3.3,0,6-2.9,6-6.4V27.6C94.8,27.2,94.7,26.9,94.5,26.7z M92.4,64.2
					c0,0.6-0.1,1.1-0.3,1.6L75.8,48.4l16.6-17.8V64.2z M88.4,23.8l3.6,3.8l-3.6,3.8V23.8z M36.6,65.8c-0.2-0.5-0.3-1.1-0.3-1.6V30.7
					l16.6,17.7L36.6,65.8z M40.3,31.5l-3.6-3.9l3.6-3.9V31.5z M39.8,68c-0.6,0-1.1-0.1-1.5-0.4l16.2-17.4l8.9,9.5
					c0.2,0.2,0.5,0.4,0.8,0.4c0.3,0,0.6-0.1,0.8-0.4l9-9.6l16.3,17.4c-0.5,0.2-1,0.4-1.5,0.4L39.8,68L39.8,68z"/>
				<path id="XMLID_47_" class="st0" d="M64.3,8c0.3,0,0.6-0.1,0.8-0.4c0.2-0.2,0.3-0.6,0.3-0.9S65.4,6,65.1,5.8
					c-0.2-0.2-0.5-0.4-0.8-0.4c-0.3,0-0.6,0.1-0.8,0.4c-0.2,0.2-0.3,0.6-0.3,0.9c0,0.3,0.1,0.7,0.3,0.9C63.7,7.8,64,8,64.3,8z"/>
				<path id="XMLID_46_" class="st0" d="M53.1,20.8c-1.6,3.1-2,6.7-1.2,10.2c0.7,3,2.3,5.5,4.6,7.4c2.2,1.8,4.9,2.8,7.6,2.9
					c0,0,0,0,0,0c0.6,0,1.2-0.5,1.2-1.2c0-0.7-0.5-1.3-1.2-1.3c-4.7-0.1-8.8-3.6-9.9-8.4c-1.4-5.8,1.7-11.8,7-13.6
					c2.7-0.9,5.6-0.7,8.1,0.8c2.5,1.4,4.4,3.8,5.2,6.7c0.5,2.1,0.4,4.1-0.6,6.6c-0.3,0.7-1.1,2.4-3,2.4c-0.3,0-0.6-0.1-0.9-0.4
					c-0.3-0.4-0.5-0.9-0.5-1.4V20.8c0-0.7-0.5-1.3-1.2-1.3c-0.7,0-1.2,0.6-1.2,1.3v0.4c-0.9-0.8-2.1-1.3-3.4-1.3
					c-3,0-6.1,2.8-6.1,7.4c0,2.1,0.6,4,1.7,5.4c1.1,1.5,2.7,2.3,4.3,2.3c1.5,0,2.8-0.7,3.9-1.9c0.2,0.5,0.5,1,0.9,1.3
					c0.7,0.8,1.6,1.2,2.5,1.2c2.8,0,4.5-2,5.2-4c1.1-3,1.3-5.5,0.7-8.2c0,0,0,0,0,0c-1-3.6-3.3-6.5-6.4-8.3c-3.1-1.7-6.6-2.1-10-0.9
					C57.3,15.4,54.7,17.7,53.1,20.8L53.1,20.8z M63.7,32.5c-2,0-3.6-2.3-3.6-5.2c0-3.1,1.9-4.9,3.7-4.9c2,0,3.4,2,3.4,4.9
					C67.2,30.2,65.6,32.5,63.7,32.5L63.7,32.5z"/>
			</g>
		</g>
	</g>
</g>
</svg>
