<?xml version="1.0" encoding="utf-8"?>
<!-- Generator: Adobe Illustrator 24.1.3, SVG Export Plug-In . SVG Version: 6.00 Build 0)  -->
<svg version="1.1" id="Capa_1" xmlns="http://www.w3.org/2000/svg" xmlns:xlink="http://www.w3.org/1999/xlink" x="0px" y="0px"
	 viewBox="0 0 104 100" style="enable-background:new 0 0 104 100;" xml:space="preserve">
<style type="text/css">
	.st0{fill:#69C8F2;}
	.st1{fill:#FFFFFF;}
	.st2{fill:none;stroke:#69C8F2;stroke-width:2.5109;stroke-linecap:round;stroke-linejoin:round;stroke-miterlimit:10;}
</style>
<g>
	<g>
		<path class="st0" d="M4.7,34.1c-0.6-0.3-1.1-0.8-1.4-1.5C3,32,2.8,31.2,2.8,30.2v0h2.6v0c0,0.6,0.2,1.1,0.4,1.4
			C6,32,6.4,32.1,6.9,32.1c0.5,0,0.9-0.2,1.2-0.5c0.3-0.3,0.4-0.8,0.4-1.3v-2.7c0-0.6-0.1-1-0.4-1.3S7.5,25.9,7,25.9
			c-0.4,0-0.7,0.1-1,0.3c-0.3,0.2-0.4,0.5-0.5,0.9H3.1v-8.9h7.6v2.5H5.7v3.5c0.2-0.2,0.5-0.4,0.9-0.5c0.3-0.1,0.7-0.2,1-0.2
			c0.7,0,1.4,0.2,1.9,0.5s0.9,0.8,1.2,1.5c0.3,0.6,0.4,1.4,0.4,2.3v2.7c0,0.9-0.2,1.7-0.5,2.3c-0.3,0.6-0.8,1.1-1.4,1.5
			s-1.4,0.5-2.2,0.5C6.1,34.6,5.3,34.4,4.7,34.1z"/>
	</g>
	<g>
		<g>
			<path class="st1" d="M33.9,86.4v3.7c0,1-0.2,1.8-0.6,2.6c-0.4,0.7-0.9,1.3-1.6,1.7s-1.5,0.6-2.5,0.6c-0.9,0-1.8-0.2-2.5-0.6
				s-1.3-0.9-1.6-1.6c-0.4-0.7-0.6-1.5-0.6-2.5V84c0-1,0.2-1.9,0.6-2.6s0.9-1.3,1.6-1.7s1.5-0.6,2.5-0.6c0.9,0,1.7,0.2,2.4,0.5
				c0.7,0.4,1.2,0.9,1.5,1.6c0.4,0.7,0.6,1.6,0.7,2.6h-2.6c0-0.5-0.2-0.9-0.3-1.3c-0.2-0.3-0.4-0.6-0.7-0.8c-0.3-0.2-0.6-0.3-1-0.3
				c-0.4,0-0.8,0.1-1.1,0.3c-0.3,0.2-0.6,0.5-0.8,0.9S27,83.5,27,84v6.3c0,0.4,0.1,0.8,0.3,1.1c0.2,0.3,0.4,0.6,0.8,0.8
				c0.3,0.2,0.7,0.3,1.2,0.3c0.4,0,0.8-0.1,1.2-0.3c0.3-0.2,0.6-0.5,0.8-0.8c0.2-0.4,0.3-0.8,0.3-1.3v-1.4h-2.1v-2.3H33.9z"/>
			<path class="st1" d="M38.7,79.3h1.9l4.7,15.5h-2.6l-3.1-11.4l-3.1,11.4H34L38.7,79.3z M36.5,89.6h6.3v2.3h-6.3V89.6z"/>
			<path class="st1" d="M46.1,79.3h2.4v15.5h-2.4V79.3z M47.3,92.4h7.2v2.3h-7.2V92.4z"/>
			<path class="st1" d="M55.5,79.3H58v15.5h-2.4V79.3z M56.6,79.3H64v2.3h-7.4V79.3z M56.6,85.9h6.5v2.3h-6.5V85.9z M56.6,92.4H64
				v2.3h-7.4V92.4z"/>
			<path class="st1" d="M65.3,79.3h2.4v15.5h-2.4V79.3z M66.4,86h4.1c0.3,0,0.6-0.1,0.8-0.2s0.4-0.3,0.6-0.6
				c0.1-0.3,0.2-0.6,0.2-0.9v-0.8c0-0.4-0.1-0.7-0.2-0.9c-0.1-0.3-0.3-0.5-0.6-0.6c-0.2-0.1-0.5-0.2-0.9-0.2h-4.1v-2.3h4
				c0.9,0,1.6,0.2,2.2,0.5c0.6,0.3,1.1,0.8,1.4,1.4c0.3,0.6,0.5,1.3,0.5,2.1v0.9c0,0.8-0.2,1.6-0.5,2.2c-0.3,0.6-0.8,1.1-1.5,1.4
				c-0.6,0.3-1.4,0.5-2.2,0.5h-4V86z M69.5,87.8l2.4-0.5l3.3,7.4h-2.8L69.5,87.8z"/>
			<path class="st1" d="M78.9,94.8h-2.5V79.3h2.5V94.8z"/>
			<path class="st1" d="M84.1,79.3H86l4.7,15.5h-2.6l-3.1-11.4L82,94.8h-2.6L84.1,79.3z M82,89.6h6.3v2.3H82V89.6z"/>
		</g>
	</g>
	<line class="st2" x1="22.3" y1="7.3" x2="22.3" y2="69"/>
	<path class="st1" d="M11,91.3H8.3c-0.6,0-1.2-0.5-1.2-1.2V83c0-0.6,0.5-1.2,1.2-1.2H11c0.3,0,0.6,0.1,0.8,0.3l4,3.9
		c0.5,0.5,0.5,1.3-0.1,1.7l-3.9,3.3C11.6,91.2,11.3,91.3,11,91.3z"/>
	<g>
		<g>
			<path class="st0" d="M99.9,20.4h-3.8V14c0-0.7-0.6-1.3-1.3-1.3h-1.3V6.4c0-0.7-0.6-1.3-1.3-1.3H34.8c-0.7,0-1.3,0.6-1.3,1.3v6.4
				h-1.3c-0.7,0-1.3,0.6-1.3,1.3s0.6,1.3,1.3,1.3h1.3v5.1h-1.3c-0.7,0-1.3,0.6-1.3,1.3c0,0.7,0.6,1.3,1.3,1.3h1.3v5.1h-1.3
				c-0.7,0-1.3,0.6-1.3,1.3s0.6,1.3,1.3,1.3h1.3v5.1h-1.3c-0.7,0-1.3,0.6-1.3,1.3c0,0.7,0.6,1.3,1.3,1.3h1.3v5.1h-1.3
				c-0.7,0-1.3,0.6-1.3,1.3s0.6,1.3,1.3,1.3h1.3v5.1h-1.3c-0.7,0-1.3,0.6-1.3,1.3c0,0.7,0.6,1.3,1.3,1.3h1.3v5.1h-1.3
				c-0.7,0-1.3,0.6-1.3,1.3c0,0.7,0.6,1.3,1.3,1.3h1.3v6.4c0,0.7,0.6,1.3,1.3,1.3h57.4c0.7,0,1.3-0.6,1.3-1.3v-6.4h6.4
				c0.7,0,1.3-0.6,1.3-1.3V21.7C101.2,21,100.6,20.4,99.9,20.4z M88.4,15.3h5.1v35.8h-5.1V15.3z M91,12.7h-2.6V7.6H91V12.7z
				 M36.1,61.3h1.3c0.7,0,1.3-0.6,1.3-1.3c0-0.7-0.6-1.3-1.3-1.3h-1.3v-5.1h1.3c0.7,0,1.3-0.6,1.3-1.3c0-0.7-0.6-1.3-1.3-1.3h-1.3
				V46h1.3c0.7,0,1.3-0.6,1.3-1.3s-0.6-1.3-1.3-1.3h-1.3v-5.1h1.3c0.7,0,1.3-0.6,1.3-1.3c0-0.7-0.6-1.3-1.3-1.3h-1.3v-5.1h1.3
				c0.7,0,1.3-0.6,1.3-1.3s-0.6-1.3-1.3-1.3h-1.3V23h1.3c0.7,0,1.3-0.6,1.3-1.3c0-0.7-0.6-1.3-1.3-1.3h-1.3v-5.1h1.3
				c0.7,0,1.3-0.6,1.3-1.3s-0.6-1.3-1.3-1.3h-1.3V7.6h49.8v58.8H36.1V61.3z M91,66.5h-2.6v-5.1H91V66.5z M98.7,58.8H88.4v-5.1h6.4
				c0.7,0,1.3-0.6,1.3-1.3V23h2.6V58.8z"/>
			<path class="st0" d="M77.6,20.4H44.4c-0.7,0-1.3,0.6-1.3,1.3v30.7c0,0.7,0.6,1.3,1.3,1.3h33.2c0.7,0,1.3-0.6,1.3-1.3V21.7
				C78.9,21,78.3,20.4,77.6,20.4z M76.3,23v24.8l-7.5-12.6c-0.4-0.6-1.1-0.8-1.8-0.4c-0.1,0.1-0.3,0.2-0.4,0.3l-7.8,10.4l-5.1-4.3
				c-0.5-0.4-1.3-0.4-1.8,0.2l-6.4,7.6V23L76.3,23z M75.4,51.1H47.1l6-7.2l5.2,4.3c0.5,0.5,1.3,0.4,1.8-0.2c0,0,0,0,0-0.1l7.5-10
				L75.4,51.1z"/>
			<path class="st0" d="M55.9,35.8c2.1,0,3.8-1.7,3.8-3.8s-1.7-3.8-3.8-3.8S52,29.8,52,31.9C52,34,53.8,35.8,55.9,35.8z M55.9,30.6
				c0.7,0,1.3,0.6,1.3,1.3c0,0.7-0.6,1.3-1.3,1.3s-1.3-0.6-1.3-1.3C54.6,31.2,55.2,30.6,55.9,30.6z"/>
		</g>
	</g>
</g>
</svg>
