<?xml version="1.0" encoding="utf-8"?>
<!-- Generator: Adobe Illustrator 24.1.3, SVG Export Plug-In . SVG Version: 6.00 Build 0)  -->
<svg version="1.1" id="Capa_1" xmlns="http://www.w3.org/2000/svg" xmlns:xlink="http://www.w3.org/1999/xlink" x="0px" y="0px"
	 viewBox="0 0 100 100" style="enable-background:new 0 0 100 100;" xml:space="preserve">
<style type="text/css">
	.st0{fill:#69C8F2;}
	.st1{fill:#FFFFFF;}
	.st2{fill:none;stroke:#69C8F2;stroke-width:2.4203;stroke-linecap:round;stroke-linejoin:round;stroke-miterlimit:10;}
</style>
<g>
	<g>
		<g>
			<g>
				<g>
					<path class="st0" d="M98.5,32.9L85.7,22c0-0.1,0-0.1,0-0.2V7.5c0-0.9-0.7-1.5-1.5-1.6h-7.1c-0.8,0-1.5,0.7-1.5,1.6v5.9
						L65.4,4.7c-0.6-0.5-1.4-0.5-1.9,0L30.3,32.9c-0.6,0.5-0.7,1.5-0.2,2.1c0.5,0.6,1.5,0.7,2.1,0.2c0,0,0,0,0,0L64.4,7.8l11.5,9.8
						l6.9,5.8l13.8,11.7c0.6,0.5,1.6,0.5,2.1-0.2C99.2,34.4,99.1,33.4,98.5,32.9z M82.8,19.5l-4.2-3.5v-7h4.2V19.5z"/>
				</g>
			</g>
			<g>
				<g>
					<path class="st0" d="M91.9,35.9l-4.2-3.6L65.4,13.2c-0.6-0.5-1.4-0.5-1.9,0L41.1,32.3l-4.2,3.6c-0.6,0.5-0.7,1.5-0.2,2.1
						c0.5,0.6,1.4,0.7,2.1,0.2l0,0l1.9-1.6v28c0,0.8,0.7,1.5,1.5,1.5h44.4c0.8,0,1.5-0.7,1.5-1.5v-28l1.9,1.6c0.3,0.2,0.6,0.4,1,0.4
						c0.4,0,0.9-0.2,1.1-0.5C92.6,37.4,92.5,36.4,91.9,35.9z M70.4,63.1H58.4V47h11.9V63.1z M73.4,63.1V45.5c0-0.8-0.6-1.5-1.4-1.5
						h-15c-0.8,0-1.4,0.7-1.4,1.5v17.6H43.7V34l20.7-17.7L85.1,34v29.1H73.4z"/>
				</g>
			</g>
		</g>
	</g>
	<g>
		<path class="st0" d="M5.8,35.2H3.2V21.8L1,22.9v-2.7l2.3-1.3h2.5V35.2z"/>
	</g>
	<g>
		<g>
			<path class="st1" d="M27,95.5h-2.5V80.1H27V95.5z"/>
			<path class="st1" d="M28.9,80.1h2.3l5.3,11.5l-0.3,0.3V80.1h2.3v15.5h-2.4L31,84.4l0.3-0.3v11.5h-2.3V80.1z"/>
			<path class="st1" d="M42.9,95.5h-2.5V80.1h2.5V95.5z"/>
			<path class="st1" d="M46.8,95.1c-0.7-0.4-1.2-0.9-1.6-1.7c-0.4-0.7-0.5-1.6-0.5-2.6v-6.1c0-1,0.2-1.9,0.5-2.6
				c0.4-0.7,0.9-1.3,1.6-1.7c0.7-0.4,1.5-0.6,2.4-0.6c0.9,0,1.7,0.2,2.4,0.5c0.6,0.4,1.2,0.9,1.5,1.7c0.4,0.7,0.6,1.6,0.7,2.7h-2.5
				c0-0.6-0.2-1-0.3-1.4c-0.2-0.4-0.4-0.7-0.7-0.8c-0.3-0.2-0.6-0.3-1-0.3c-0.4,0-0.8,0.1-1.1,0.3c-0.3,0.2-0.5,0.5-0.7,0.8
				c-0.2,0.4-0.3,0.8-0.3,1.3v6.1c0,0.5,0.1,0.9,0.3,1.3c0.2,0.4,0.4,0.6,0.7,0.8c0.3,0.2,0.7,0.3,1.1,0.3c0.4,0,0.7-0.1,1-0.3
				s0.5-0.5,0.7-0.8c0.2-0.4,0.3-0.8,0.3-1.4h2.5c-0.1,1.1-0.3,2-0.7,2.7c-0.4,0.7-0.9,1.3-1.5,1.7c-0.7,0.4-1.4,0.5-2.4,0.5
				C48.3,95.7,47.5,95.5,46.8,95.1z"/>
			<path class="st1" d="M57.4,95.5h-2.5V80.1h2.5V95.5z"/>
			<path class="st1" d="M61.3,95.1c-0.7-0.4-1.3-0.9-1.6-1.6c-0.4-0.7-0.6-1.5-0.6-2.5v-6.3c0-1,0.2-1.8,0.6-2.5
				c0.4-0.7,0.9-1.3,1.6-1.6s1.5-0.6,2.5-0.6c1,0,1.8,0.2,2.5,0.6s1.3,0.9,1.6,1.6c0.4,0.7,0.6,1.5,0.6,2.5V91c0,1-0.2,1.8-0.6,2.5
				c-0.4,0.7-0.9,1.3-1.6,1.6s-1.5,0.6-2.5,0.6C62.9,95.7,62,95.5,61.3,95.1z M65,93c0.3-0.2,0.6-0.5,0.8-0.8s0.3-0.8,0.3-1.3v-6.3
				c0-0.5-0.1-0.9-0.3-1.2c-0.2-0.4-0.4-0.6-0.8-0.8c-0.3-0.2-0.7-0.3-1.2-0.3c-0.5,0-0.9,0.1-1.2,0.3s-0.6,0.5-0.8,0.8
				c-0.2,0.4-0.3,0.8-0.3,1.2v6.3c0,0.5,0.1,0.9,0.3,1.3s0.4,0.6,0.8,0.8c0.3,0.2,0.7,0.3,1.2,0.3C64.3,93.3,64.7,93.2,65,93z"/>
		</g>
	</g>
	<line class="st2" x1="21.2" y1="8.1" x2="21.2" y2="65.4"/>
	<path class="st1" d="M9.9,92.1H7.2c-0.6,0-1.2-0.5-1.2-1.2v-7.2c0-0.6,0.5-1.2,1.2-1.2h2.6c0.3,0,0.6,0.1,0.8,0.3l4,3.9
		c0.5,0.5,0.5,1.3-0.1,1.7l-3.9,3.3C10.5,92,10.2,92.1,9.9,92.1z"/>
</g>
</svg>
