<?xml version="1.0" encoding="utf-8"?>
<!-- Generator: Adobe Illustrator 24.1.3, SVG Export Plug-In . SVG Version: 6.00 Build 0)  -->
<svg version="1.1" id="Capa_1" xmlns="http://www.w3.org/2000/svg" xmlns:xlink="http://www.w3.org/1999/xlink" x="0px" y="0px"
	 viewBox="0 0 58.7 72.3" style="enable-background:new 0 0 58.7 72.3;" xml:space="preserve">
<style type="text/css">
	.st0{fill:#FFFFFF;}
	.st1{fill:#3C9CCC;}
</style>
<g>
	<path class="st0" d="M29.6,72.3L0,54.9V18.6L29.4,0l29.4,18.6v36.3L29.6,72.3z M3,53.2l26.6,15.6l26.1-15.6V20.3L29.4,3.6L3,20.3
		V53.2z"/>
</g>
<polygon points="3,53.2 29.6,68.8 55.7,53.2 55.7,20.3 29.4,3.6 3,20.3 "/>
<polygon class="st0" points="20.2,30.8 16.9,28.7 6.3,22.1 6.3,50.4 11.3,53.5 11.2,31.2 14.2,33.1 14.2,51 19.7,54.5 19.7,36.5 
	22.7,38.4 22.7,60.6 28.2,64.1 28.2,35.8 "/>
<polygon id="Trazado_5481_2_" class="st1" points="8.4,20.8 13.5,24 29.6,13.9 45.9,23.9 50.8,20.8 29.6,7.5 "/>
<polygon class="st0" points="52.8,32.1 52.8,22.2 31.1,35.9 31.1,58.7 31.1,61.2 31.1,64.1 52.8,50.4 52.8,36.1 40.2,44.1 
	40.2,48.9 47.8,44 47.8,48.2 36.1,55.6 36.1,38.8 47.8,31.4 47.8,35.2 "/>
</svg>
