<?xml version="1.0" encoding="utf-8"?>
<!-- Generator: Adobe Illustrator 24.1.3, SVG Export Plug-In . SVG Version: 6.00 Build 0)  -->
<svg version="1.1" id="Capa_1" xmlns="http://www.w3.org/2000/svg" xmlns:xlink="http://www.w3.org/1999/xlink" x="0px" y="0px"
	 viewBox="0 0 100 100" style="enable-background:new 0 0 100 100;" xml:space="preserve">
<style type="text/css">
	.st0{fill:#69C8F2;}
	.st1{fill:#FFFFFF;}
	.st2{fill:none;stroke:#69C8F2;stroke-width:2.5417;stroke-linecap:round;stroke-linejoin:round;stroke-miterlimit:10;}
</style>
<g>
	<g>
		<path class="st0" d="M1.4,34.2L6,27.4c0.4-0.6,0.7-1.2,0.9-1.8s0.3-1,0.3-1.5v-0.1c0-0.5-0.1-0.9-0.4-1.2s-0.6-0.4-1.1-0.4
			c-0.5,0-0.9,0.2-1.2,0.5c-0.3,0.4-0.5,0.9-0.5,1.5v0.2H1.3v-0.2c0.1-1,0.3-1.8,0.6-2.5c0.3-0.7,0.8-1.2,1.4-1.5
			C4,20.2,4.7,20,5.6,20c0.9,0,1.7,0.2,2.3,0.5s1.1,0.8,1.4,1.4c0.3,0.6,0.5,1.4,0.5,2.2v0.1c0,0.6-0.1,1.3-0.4,2.1
			s-0.6,1.5-1.1,2.3L4.7,34h5.1v2.5H1.4V34.2z"/>
	</g>
	<g>
		<g>
			<path class="st1" d="M32.3,81.4h2.5v15.5h-2.3V85.3l0.1,0.7l-2.9,8.5h-1.7l-2.9-8.3l0.2-0.9v11.5h-2.3V81.4h2.6l3.3,9.7
				L32.3,81.4z"/>
			<path class="st1" d="M38.8,96.4c-0.7-0.4-1.3-0.9-1.6-1.6c-0.4-0.7-0.6-1.5-0.6-2.5v-6.3c0-1,0.2-1.8,0.6-2.5
				c0.4-0.7,0.9-1.3,1.6-1.6s1.5-0.6,2.5-0.6s1.8,0.2,2.5,0.6s1.3,0.9,1.6,1.6c0.4,0.7,0.6,1.5,0.6,2.5v6.3c0,1-0.2,1.8-0.6,2.5
				c-0.4,0.7-0.9,1.3-1.6,1.6S42.3,97,41.3,97S39.6,96.8,38.8,96.4z M42.5,94.3c0.3-0.2,0.6-0.5,0.8-0.8s0.3-0.8,0.3-1.3V86
				c0-0.5-0.1-0.9-0.3-1.2c-0.2-0.4-0.4-0.6-0.8-0.8c-0.3-0.2-0.7-0.3-1.2-0.3s-0.9,0.1-1.2,0.3s-0.6,0.5-0.8,0.8
				c-0.2,0.4-0.3,0.8-0.3,1.2v6.3c0,0.5,0.1,0.9,0.3,1.3s0.4,0.6,0.8,0.8c0.3,0.2,0.7,0.3,1.2,0.3S42.2,94.5,42.5,94.3z"/>
			<path class="st1" d="M47.7,81.4h2.4v15.5h-2.4V81.4z M49.2,94.5h3c0.7,0,1.3-0.2,1.6-0.6c0.4-0.4,0.6-0.9,0.6-1.6v-6.5
				c0-0.7-0.2-1.2-0.6-1.6c-0.4-0.4-0.9-0.6-1.6-0.6h-3v-2.3h3c1,0,1.8,0.2,2.5,0.5c0.7,0.3,1.2,0.9,1.6,1.5
				c0.4,0.7,0.6,1.5,0.6,2.4v6.6c0,0.9-0.2,1.7-0.5,2.4s-0.9,1.2-1.6,1.5c-0.7,0.4-1.6,0.5-2.6,0.5h-3V94.5z"/>
			<path class="st1" d="M58.5,81.4h2.4v15.5h-2.4V81.4z M59.6,81.4h7.4v2.3h-7.4V81.4z M59.6,88h6.5v2.3h-6.5V88z M59.6,94.5h7.4
				v2.3h-7.4V94.5z"/>
			<path class="st1" d="M68.3,81.4h2.4v15.5h-2.4V81.4z M69.4,94.5h7.2v2.3h-7.2V94.5z"/>
			<path class="st1" d="M79.3,96.4c-0.7-0.4-1.3-0.9-1.6-1.6c-0.4-0.7-0.6-1.5-0.6-2.5v-6.3c0-1,0.2-1.8,0.6-2.5
				c0.4-0.7,0.9-1.3,1.6-1.6s1.5-0.6,2.5-0.6s1.8,0.2,2.5,0.6s1.3,0.9,1.6,1.6c0.4,0.7,0.6,1.5,0.6,2.5v6.3c0,1-0.2,1.8-0.6,2.5
				c-0.4,0.7-0.9,1.3-1.6,1.6S82.8,97,81.8,97S80,96.8,79.3,96.4z M83,94.3c0.3-0.2,0.6-0.5,0.8-0.8s0.3-0.8,0.3-1.3V86
				c0-0.5-0.1-0.9-0.3-1.2c-0.2-0.4-0.4-0.6-0.8-0.8c-0.3-0.2-0.7-0.3-1.2-0.3s-0.9,0.1-1.2,0.3s-0.6,0.5-0.8,0.8
				c-0.2,0.4-0.3,0.8-0.3,1.2v6.3c0,0.5,0.1,0.9,0.3,1.3s0.4,0.6,0.8,0.8c0.3,0.2,0.7,0.3,1.2,0.3S82.7,94.5,83,94.3z"/>
			<path class="st1" d="M89.9,96.6c-0.6-0.3-1.2-0.6-1.6-1.1c-0.4-0.5-0.7-1.1-0.9-1.8l2.3-1c0.2,0.7,0.5,1.2,0.9,1.5
				c0.4,0.3,1,0.5,1.6,0.5c0.7,0,1.3-0.2,1.7-0.5s0.6-0.8,0.6-1.3v-0.7c0-0.4-0.1-0.7-0.3-1s-0.5-0.5-0.8-0.6
				c-0.3-0.1-0.8-0.3-1.4-0.5c0,0,0,0,0,0c0,0,0,0,0,0l-0.1,0c-0.9-0.2-1.5-0.5-2.1-0.7s-1-0.7-1.4-1.2c-0.4-0.6-0.6-1.3-0.6-2.2
				v-0.4c0-0.9,0.2-1.6,0.6-2.3s0.9-1.1,1.6-1.4c0.7-0.3,1.5-0.5,2.5-0.5c0.7,0,1.4,0.1,2,0.4c0.6,0.2,1.1,0.6,1.4,1.1
				c0.4,0.5,0.7,1.1,0.9,1.8l-2.2,1c-0.2-0.6-0.5-1.1-0.9-1.4c-0.4-0.3-0.8-0.5-1.3-0.5c-0.7,0-1.2,0.1-1.6,0.4
				c-0.4,0.3-0.6,0.7-0.6,1.3v0.5c0,0.4,0.1,0.8,0.3,1s0.5,0.5,0.9,0.6c0.3,0.1,0.8,0.3,1.4,0.5c0,0,0.1,0,0.1,0c0,0,0.1,0,0.1,0
				c0,0,0.1,0,0.1,0c0,0,0.1,0,0.1,0c0.8,0.2,1.4,0.5,1.9,0.8c0.5,0.3,0.9,0.7,1.3,1.2c0.4,0.5,0.5,1.3,0.5,2.1v0.7
				c0,0.9-0.2,1.6-0.6,2.3c-0.4,0.6-0.9,1.1-1.6,1.4S93.2,97,92.2,97C91.3,97,90.6,96.9,89.9,96.6z"/>
		</g>
	</g>
	<line class="st2" x1="21.1" y1="9.4" x2="21.1" y2="72.6"/>
	<path class="st1" d="M9.9,93.4H7.2c-0.6,0-1.2-0.5-1.2-1.2V85c0-0.6,0.5-1.2,1.2-1.2h2.6c0.3,0,0.6,0.1,0.8,0.3l4,3.9
		c0.5,0.5,0.5,1.3-0.1,1.7l-3.9,3.3C10.4,93.3,10.1,93.4,9.9,93.4z"/>
	<g>
		<g>
			<g>
				<path class="st0" d="M96.8,9.4c0-0.6-0.5-1-1-1l-62,0.1c-0.6,0-1,0.5-1,1l0.1,62c0,0.6,0.5,1,1,1l62-0.1c0.6,0,1-0.5,1-1
					L96.8,9.4z M35.1,70.4l-0.1-59.7l59.7-0.1l0.1,59.7L35.1,70.4z"/>
			</g>
		</g>
		<g>
			<g>
				<path class="st0" d="M88.9,36.1V17.2c0-0.8-0.9-0.8-0.9-0.8H65.2H42.3c-0.5-0.1-1,0.4-1.5,0.9v18.9v14.9l0,12.4c0,0.5,0.4,1,1,1
					l15.2,0c0.5,0,1-0.4,1-1l-0.1-2.4l15.6,0c1.6,0,2.9-1.3,2.9-2.9l0-3.9h11.8c0,0,1-0.6,0.8-1.2V36.1z M77.5,18.7v7.5
					c0,0-0.1,1,1.3,1c1.1,0.1,1-1,1-1v-7.4h6.9v16.1h-6.9v-2.6c0-0.8-1.1-1-1.6-1c-0.5,0-0.7,1-0.7,1v2.6h-2.1h-6.3H66l0-16.1
					L77.5,18.7z M74,43c-2.1-0.5-3.8-2.5-3.4-4.9v-1.2h2.2H74V43z M63.7,34.8h-3.4l0,0c0-2.4,1.7-5,3.4-5.4V34.8z M43.1,62.3V52h4.2
					c0.5,0.2,1-0.7,1-1.2c0-0.9-1-1.1-1-1.1l-4.2,0l0-12.7h3H50l0,0c0,6.9,5.9,8.3,5.9,8.3v10.4v4.6v2L43.1,62.3z M52.3,36.9h3.6
					v6.1c-1.7-0.5-3.5-2.5-3.6-4.9V36.9z M43.1,34.8l0-16.1h8.1v3.6c0.2,0.5,0.6,1,1.2,1c0.5,0,1-0.4,1.1-1v-3.6l10.3,0l0,8.2
					c-3.3,0.5-5.8,4.4-5.8,7.9h0H43.1z M73.3,58.8H57.9v-1.3v-3.3h16.4l0,3.7C74.3,58.4,73.8,58.8,73.3,58.8z M57.9,52v-2.4V36.9
					h10.4V38c0,0,0.1,6.9,7,6.9c0.6,0,1-0.4,1-1v-7h2h8.3l0,15H57.9z"/>
			</g>
		</g>
		<g>
			<g>
				<path class="st0" d="M85.9,55.4l-4.3,0c-1.6,0-3,1.3-3,3l0,4c0,0.5,0.4,1,1,1l8.3,0c0.5,0,1-0.4,1-1l0-4
					C88.9,56.7,87.6,55.4,85.9,55.4z M80.9,61.1V59c0-0.7,0.1-1.3,0.7-1.3h4c0.7,0,1.1,0.2,1,1.3v2.2H80.9z"/>
			</g>
		</g>
		<g>
		</g>
		<g>
		</g>
		<g>
		</g>
		<g>
		</g>
		<g>
		</g>
		<g>
		</g>
		<g>
		</g>
		<g>
		</g>
		<g>
		</g>
		<g>
		</g>
		<g>
		</g>
		<g>
		</g>
		<g>
		</g>
		<g>
		</g>
		<g>
		</g>
	</g>
</g>
</svg>
