<?xml version="1.0" encoding="utf-8"?>
<!-- Generator: Adobe Illustrator 24.1.3, SVG Export Plug-In . SVG Version: 6.00 Build 0)  -->
<svg version="1.1" id="Capa_1" xmlns="http://www.w3.org/2000/svg" xmlns:xlink="http://www.w3.org/1999/xlink" x="0px" y="0px"
	 viewBox="0 0 104 100" style="enable-background:new 0 0 104 100;" xml:space="preserve">
<style type="text/css">
	.st0{fill:#69C8F2;}
	.st1{fill:#FFFFFF;}
	.st2{fill:none;stroke:#69C8F2;stroke-width:2.5261;stroke-linecap:round;stroke-linejoin:round;stroke-miterlimit:10;}
</style>
<g>
	<g>
		<path class="st0" d="M1.9,34.1c-0.6-0.3-1.1-0.8-1.5-1.5c-0.3-0.7-0.5-1.5-0.5-2.6h2.6c0,0.5,0.1,0.9,0.2,1.2
			c0.1,0.3,0.3,0.5,0.6,0.7s0.6,0.2,0.9,0.2c0.5,0,1-0.1,1.3-0.4c0.3-0.3,0.4-0.7,0.4-1.3V29c0-0.6-0.1-1-0.4-1.4
			c-0.3-0.3-0.6-0.5-1.1-0.5H3.3v-2.5h1.1c0.4,0,0.7-0.1,0.9-0.4c0.2-0.3,0.3-0.7,0.3-1.2v-1.3c0-0.5-0.1-0.8-0.4-1.1
			c-0.2-0.2-0.6-0.4-1-0.4c-0.3,0-0.6,0.1-0.8,0.2C3.3,20.8,3.1,21,3,21.3c-0.1,0.3-0.2,0.7-0.2,1.2H0.2c0-1.1,0.2-1.9,0.5-2.6
			s0.8-1.2,1.4-1.5C2.7,18.1,3.5,18,4.4,18c1.2,0,2.2,0.3,2.9,1c0.7,0.7,1,1.6,1,2.8v1.3c0,0.6-0.2,1.1-0.5,1.6
			c-0.3,0.5-0.8,0.9-1.4,1.2C7.1,26.1,7.6,26.5,8,27c0.4,0.6,0.6,1.2,0.6,2.1v1.4c0,0.9-0.2,1.6-0.5,2.2c-0.3,0.6-0.8,1.1-1.4,1.4
			s-1.4,0.5-2.3,0.5C3.4,34.6,2.5,34.4,1.9,34.1z"/>
	</g>
	<g>
		<g>
			<path class="st1" d="M21.5,79.3h2.3l5.3,11.5l-0.3,0.3V79.3h2.3v15.5h-2.4l-5.3-11.2l0.3-0.3v11.5h-2.3V79.3z"/>
			<path class="st1" d="M35.2,94.3c-0.7-0.4-1.3-0.9-1.6-1.6C33.2,92,33,91.1,33,90.2v-6.3c0-1,0.2-1.8,0.6-2.5
				c0.4-0.7,0.9-1.3,1.6-1.6s1.5-0.6,2.5-0.6s1.8,0.2,2.5,0.6s1.3,0.9,1.6,1.6c0.4,0.7,0.6,1.5,0.6,2.5v6.3c0,1-0.2,1.8-0.6,2.5
				c-0.4,0.7-0.9,1.3-1.6,1.6s-1.5,0.6-2.5,0.6S35.9,94.7,35.2,94.3z M38.9,92.2c0.3-0.2,0.6-0.5,0.8-0.8s0.3-0.8,0.3-1.3v-6.3
				c0-0.5-0.1-0.9-0.3-1.2c-0.2-0.4-0.4-0.6-0.8-0.8c-0.3-0.2-0.7-0.3-1.2-0.3s-0.9,0.1-1.2,0.3s-0.6,0.5-0.8,0.8
				c-0.2,0.4-0.3,0.8-0.3,1.2v6.3c0,0.5,0.1,0.9,0.3,1.3s0.4,0.6,0.8,0.8c0.3,0.2,0.7,0.3,1.2,0.3S38.5,92.4,38.9,92.2z"/>
			<path class="st1" d="M45.8,94.5c-0.6-0.3-1.2-0.6-1.6-1.1c-0.4-0.5-0.7-1.1-0.9-1.8l2.3-1c0.2,0.7,0.5,1.2,0.9,1.5
				c0.4,0.3,1,0.5,1.6,0.5c0.7,0,1.3-0.2,1.7-0.5s0.6-0.8,0.6-1.3v-0.7c0-0.4-0.1-0.7-0.3-1s-0.5-0.5-0.8-0.6
				c-0.3-0.1-0.8-0.3-1.4-0.5c0,0,0,0,0,0c0,0,0,0,0,0l-0.1,0c-0.9-0.2-1.5-0.5-2.1-0.7s-1-0.7-1.4-1.2c-0.4-0.6-0.6-1.3-0.6-2.2
				v-0.4c0-0.9,0.2-1.6,0.6-2.3s0.9-1.1,1.6-1.4c0.7-0.3,1.5-0.5,2.5-0.5c0.7,0,1.4,0.1,2,0.4c0.6,0.2,1.1,0.6,1.4,1.1
				c0.4,0.5,0.7,1.1,0.9,1.8l-2.2,1c-0.2-0.6-0.5-1.1-0.9-1.4c-0.4-0.3-0.8-0.5-1.3-0.5c-0.7,0-1.2,0.1-1.6,0.4
				c-0.4,0.3-0.6,0.7-0.6,1.3v0.5c0,0.4,0.1,0.8,0.3,1s0.5,0.5,0.9,0.6c0.3,0.1,0.8,0.3,1.4,0.5c0,0,0.1,0,0.1,0c0,0,0.1,0,0.1,0
				c0,0,0.1,0,0.1,0c0,0,0.1,0,0.1,0c0.8,0.2,1.4,0.5,1.9,0.8c0.5,0.3,0.9,0.7,1.3,1.2c0.4,0.5,0.5,1.3,0.5,2.1v0.7
				c0,0.9-0.2,1.6-0.6,2.3c-0.4,0.6-0.9,1.1-1.6,1.4S49,94.9,48,94.9C47.2,94.9,46.4,94.8,45.8,94.5z"/>
			<path class="st1" d="M56,94.3c-0.7-0.4-1.3-0.9-1.6-1.6c-0.4-0.7-0.6-1.5-0.6-2.5v-6.3c0-1,0.2-1.8,0.6-2.5
				c0.4-0.7,0.9-1.3,1.6-1.6s1.5-0.6,2.5-0.6s1.8,0.2,2.5,0.6s1.3,0.9,1.6,1.6c0.4,0.7,0.6,1.5,0.6,2.5v6.3c0,1-0.2,1.8-0.6,2.5
				c-0.4,0.7-0.9,1.3-1.6,1.6s-1.5,0.6-2.5,0.6S56.7,94.7,56,94.3z M59.7,92.2c0.3-0.2,0.6-0.5,0.8-0.8s0.3-0.8,0.3-1.3v-6.3
				c0-0.5-0.1-0.9-0.3-1.2c-0.2-0.4-0.4-0.6-0.8-0.8c-0.3-0.2-0.7-0.3-1.2-0.3s-0.9,0.1-1.2,0.3s-0.6,0.5-0.8,0.8
				c-0.2,0.4-0.3,0.8-0.3,1.2v6.3c0,0.5,0.1,0.9,0.3,1.3s0.4,0.6,0.8,0.8c0.3,0.2,0.7,0.3,1.2,0.3S59.4,92.4,59.7,92.2z"/>
			<path class="st1" d="M63.5,79.3h9.4v2.3h-9.4V79.3z M66.9,80.5h2.4v14.2h-2.4V80.5z"/>
			<path class="st1" d="M73.7,79.3h2.4v15.5h-2.4V79.3z M74.7,85.9h4.1c0.3,0,0.6-0.1,0.8-0.2s0.4-0.3,0.6-0.6
				c0.1-0.3,0.2-0.6,0.2-0.9v-0.8c0-0.4-0.1-0.7-0.2-0.9c-0.1-0.3-0.3-0.5-0.6-0.6c-0.2-0.1-0.5-0.2-0.9-0.2h-4.1v-2.3h4
				c0.9,0,1.6,0.2,2.2,0.5c0.6,0.3,1.1,0.8,1.4,1.4c0.3,0.6,0.5,1.3,0.5,2.1v0.9c0,0.8-0.2,1.6-0.5,2.2c-0.3,0.6-0.8,1.1-1.5,1.4
				c-0.6,0.3-1.4,0.5-2.2,0.5h-4V85.9z M77.8,87.8l2.4-0.5l3.3,7.4h-2.8L77.8,87.8z"/>
			<path class="st1" d="M86.5,94.3c-0.7-0.4-1.3-0.9-1.6-1.6c-0.4-0.7-0.6-1.5-0.6-2.5v-6.3c0-1,0.2-1.8,0.6-2.5
				c0.4-0.7,0.9-1.3,1.6-1.6s1.5-0.6,2.5-0.6s1.8,0.2,2.5,0.6s1.3,0.9,1.6,1.6c0.4,0.7,0.6,1.5,0.6,2.5v6.3c0,1-0.2,1.8-0.6,2.5
				c-0.4,0.7-0.9,1.3-1.6,1.6s-1.5,0.6-2.5,0.6S87.2,94.7,86.5,94.3z M90.2,92.2c0.3-0.2,0.6-0.5,0.8-0.8s0.3-0.8,0.3-1.3v-6.3
				c0-0.5-0.1-0.9-0.3-1.2c-0.2-0.4-0.4-0.6-0.8-0.8c-0.3-0.2-0.7-0.3-1.2-0.3s-0.9,0.1-1.2,0.3s-0.6,0.5-0.8,0.8
				c-0.2,0.4-0.3,0.8-0.3,1.2v6.3c0,0.5,0.1,0.9,0.3,1.3s0.4,0.6,0.8,0.8c0.3,0.2,0.7,0.3,1.2,0.3S89.8,92.4,90.2,92.2z"/>
			<path class="st1" d="M97.1,94.5c-0.6-0.3-1.2-0.6-1.6-1.1c-0.4-0.5-0.7-1.1-0.9-1.8l2.3-1c0.2,0.7,0.5,1.2,0.9,1.5
				c0.4,0.3,1,0.5,1.6,0.5c0.7,0,1.3-0.2,1.7-0.5s0.6-0.8,0.6-1.3v-0.7c0-0.4-0.1-0.7-0.3-1s-0.5-0.5-0.8-0.6
				c-0.3-0.1-0.8-0.3-1.4-0.5c0,0,0,0,0,0c0,0,0,0,0,0l-0.1,0c-0.9-0.2-1.5-0.5-2.1-0.7s-1-0.7-1.4-1.2c-0.4-0.6-0.6-1.3-0.6-2.2
				v-0.4c0-0.9,0.2-1.6,0.6-2.3s0.9-1.1,1.6-1.4c0.7-0.3,1.5-0.5,2.5-0.5c0.7,0,1.4,0.1,2,0.4c0.6,0.2,1.1,0.6,1.4,1.1
				c0.4,0.5,0.7,1.1,0.9,1.8l-2.2,1c-0.2-0.6-0.5-1.1-0.9-1.4c-0.4-0.3-0.8-0.5-1.3-0.5c-0.7,0-1.2,0.1-1.6,0.4
				c-0.4,0.3-0.6,0.7-0.6,1.3v0.5c0,0.4,0.1,0.8,0.3,1s0.5,0.5,0.9,0.6c0.3,0.1,0.8,0.3,1.4,0.5c0,0,0.1,0,0.1,0c0,0,0.1,0,0.1,0
				c0,0,0.1,0,0.1,0c0,0,0.1,0,0.1,0c0.8,0.2,1.4,0.5,1.9,0.8c0.5,0.3,0.9,0.7,1.3,1.2c0.4,0.5,0.5,1.3,0.5,2.1v0.7
				c0,0.9-0.2,1.6-0.6,2.3c-0.4,0.6-0.9,1.1-1.6,1.4s-1.6,0.5-2.6,0.5C98.5,94.9,97.7,94.8,97.1,94.5z"/>
		</g>
	</g>
	<line class="st2" x1="20" y1="7.3" x2="20" y2="69.7"/>
	<path class="st1" d="M8.7,91.3H6c-0.6,0-1.2-0.5-1.2-1.2v-7.2c0-0.6,0.5-1.2,1.2-1.2h2.6c0.3,0,0.6,0.1,0.8,0.3l4,3.9
		c0.5,0.5,0.5,1.3-0.1,1.7L9.5,91C9.3,91.2,9,91.3,8.7,91.3z"/>
	<g>
		<g>
			<g>
				<g>
					<path class="st0" d="M63.4,5.1c-4.2,0-7.5,3.4-7.5,7.5c0,4.2,3.4,7.5,7.5,7.5c4.2,0,7.5-3.4,7.5-7.5S67.6,5.1,63.4,5.1z
						 M63.4,18c-3,0-5.4-2.4-5.4-5.4c0-3,2.4-5.4,5.4-5.4c3,0,5.4,2.4,5.4,5.4S66.4,18,63.4,18z"/>
				</g>
			</g>
			<g>
				<g>
					<path class="st0" d="M66.6,21.3h-6.5c-5.4,0-9.7,4.3-9.7,9.7v18.3h4.3v20.5h2.2V45h-2.2v2.2h-2.2V31c0-4.2,3.4-7.5,7.5-7.5h6.5
						c4.2,0,7.5,3.4,7.5,7.5v16.2H72V45h-2.2v24.8H72V49.3h4.3V31C76.3,25.6,72,21.3,66.6,21.3z"/>
				</g>
			</g>
			<g>
				<g>
					<rect x="62.3" y="49.3" class="st0" width="2.2" height="20.5"/>
				</g>
			</g>
			<g>
				<g>
					<path class="st0" d="M84.9,15.9c-3.6,0-6.5,2.9-6.5,6.5c0,3.6,2.9,6.5,6.5,6.5c3.6,0,6.5-2.9,6.5-6.5S88.5,15.9,84.9,15.9z
						 M84.9,26.6c-2.4,0-4.3-1.9-4.3-4.3s1.9-4.3,4.3-4.3s4.3,1.9,4.3,4.3S87.3,26.6,84.9,26.6z"/>
				</g>
			</g>
			<g>
				<g>
					<path class="st0" d="M88.2,29.9h-9.7V32h9.7c3,0,5.4,2.4,5.4,5.4v14h-2.2v-2.2h-2.2v20.5h2.2V53.6h4.3V37.4
						C95.7,33.3,92.3,29.9,88.2,29.9z"/>
				</g>
			</g>
			<g>
				<g>
					<polygon class="st0" points="78.5,49.3 78.5,51.4 74.2,51.4 74.2,53.6 78.5,53.6 78.5,69.7 80.6,69.7 80.6,49.3 					"/>
				</g>
			</g>
			<g>
				<g>
					<rect x="83.9" y="53.6" class="st0" width="2.2" height="16.2"/>
				</g>
			</g>
			<g>
				<g>
					<path class="st0" d="M41.9,15.9c-3.6,0-6.5,2.9-6.5,6.5c0,3.6,2.9,6.5,6.5,6.5c3.6,0,6.5-2.9,6.5-6.5S45.4,15.9,41.9,15.9z
						 M41.9,26.6c-2.4,0-4.3-1.9-4.3-4.3s1.9-4.3,4.3-4.3s4.3,1.9,4.3,4.3S44.2,26.6,41.9,26.6z"/>
				</g>
			</g>
			<g>
				<g>
					<path class="st0" d="M38.6,29.9c-4.2,0-7.5,3.4-7.5,7.5v16.2h4.3v16.2h2.2V49.3h-2.2v2.2h-2.2v-14c0-3,2.4-5.4,5.4-5.4h9.7
						v-2.2H38.6z"/>
				</g>
			</g>
			<g>
				<g>
					<polygon class="st0" points="48.3,51.4 48.3,49.3 46.2,49.3 46.2,69.7 48.3,69.7 48.3,53.6 52.6,53.6 52.6,51.4 					"/>
				</g>
			</g>
			<g>
				<g>
					<rect x="40.8" y="53.6" class="st0" width="2.2" height="16.2"/>
				</g>
			</g>
		</g>
	</g>
</g>
</svg>
