<?xml version="1.0" encoding="utf-8"?>
<!-- Generator: Adobe Illustrator 24.1.3, SVG Export Plug-In . SVG Version: 6.00 Build 0)  -->
<svg version="1.1" id="Capa_1" xmlns="http://www.w3.org/2000/svg" xmlns:xlink="http://www.w3.org/1999/xlink" x="0px" y="0px"
	 viewBox="0 0 104 100" style="enable-background:new 0 0 104 100;" xml:space="preserve">
<style type="text/css">
	.st0{fill:#69C8F2;}
	.st1{fill:#FFFFFF;}
	.st2{fill:none;stroke:#69C8F2;stroke-width:2.5513;stroke-linecap:round;stroke-linejoin:round;stroke-miterlimit:10;}
</style>
<g>
	<g>
		<path class="st0" d="M1.5,29.3l4.3-11.5h2.7L4.4,29.1h6.8v2.4H1.5V29.3z M7.5,24.7H10v9.4H7.5V24.7z"/>
	</g>
	<g>
		<g>
			<path class="st1" d="M24.9,94.2c-0.6-0.3-1.2-0.6-1.6-1.1c-0.4-0.5-0.7-1.1-0.9-1.8l2.3-1c0.2,0.7,0.5,1.2,0.9,1.5
				c0.4,0.3,1,0.5,1.6,0.5c0.7,0,1.3-0.2,1.7-0.5s0.6-0.8,0.6-1.3v-0.7c0-0.4-0.1-0.7-0.3-1s-0.5-0.5-0.8-0.6
				C28,88,27.5,87.8,27,87.7c0,0,0,0,0,0c0,0,0,0,0,0l-0.1,0c-0.9-0.2-1.5-0.5-2.1-0.7s-1-0.7-1.4-1.2c-0.4-0.6-0.6-1.3-0.6-2.2
				v-0.4c0-0.9,0.2-1.6,0.6-2.3s0.9-1.1,1.6-1.4c0.7-0.3,1.5-0.5,2.5-0.5c0.7,0,1.4,0.1,2,0.4c0.6,0.2,1.1,0.6,1.4,1.1
				c0.4,0.5,0.7,1.1,0.9,1.8l-2.2,1c-0.2-0.6-0.5-1.1-0.9-1.4c-0.4-0.3-0.8-0.5-1.3-0.5c-0.7,0-1.2,0.1-1.6,0.4
				c-0.4,0.3-0.6,0.7-0.6,1.3v0.5c0,0.4,0.1,0.8,0.3,1s0.5,0.5,0.9,0.6c0.3,0.1,0.8,0.3,1.4,0.5c0,0,0.1,0,0.1,0c0,0,0.1,0,0.1,0
				c0,0,0.1,0,0.1,0c0,0,0.1,0,0.1,0c0.8,0.2,1.4,0.5,1.9,0.8c0.5,0.3,0.9,0.7,1.3,1.2c0.4,0.5,0.5,1.3,0.5,2.1v0.7
				c0,0.9-0.2,1.6-0.6,2.3c-0.4,0.6-0.9,1.1-1.6,1.4s-1.6,0.5-2.6,0.5C26.3,94.6,25.5,94.4,24.9,94.2z"/>
			<path class="st1" d="M33.3,78.9h2.4v15.5h-2.4V78.9z M34.4,78.9h7.4v2.3h-7.4V78.9z M34.4,85.6h6.5v2.3h-6.5V85.6z M34.4,92.1
				h7.4v2.3h-7.4V92.1z"/>
			<path class="st1" d="M43.1,78.9h2.4v15.5h-2.4V78.9z M44.1,85.6h4.1c0.3,0,0.6-0.1,0.8-0.2s0.4-0.3,0.6-0.6
				c0.1-0.3,0.2-0.6,0.2-0.9V83c0-0.4-0.1-0.7-0.2-0.9c-0.1-0.3-0.3-0.5-0.6-0.6c-0.2-0.1-0.5-0.2-0.9-0.2h-4.1v-2.3h4
				c0.9,0,1.6,0.2,2.2,0.5c0.6,0.3,1.1,0.8,1.4,1.4c0.3,0.6,0.5,1.3,0.5,2.1v0.9c0,0.8-0.2,1.6-0.5,2.2c-0.3,0.6-0.8,1.1-1.5,1.4
				c-0.6,0.3-1.4,0.5-2.2,0.5h-4V85.6z M47.2,87.5l2.4-0.5l3.3,7.4h-2.8L47.2,87.5z"/>
			<path class="st1" d="M52.9,78.9h2.6l2.6,11.3l2.6-11.3h2.6l-4,15.5h-2.3L52.9,78.9z"/>
			<path class="st1" d="M66.5,94.4H64V78.9h2.5V94.4z"/>
			<path class="st1" d="M70.3,94c-0.7-0.4-1.2-0.9-1.6-1.7c-0.4-0.7-0.5-1.6-0.5-2.6v-6.1c0-1,0.2-1.9,0.5-2.6
				c0.4-0.7,0.9-1.3,1.6-1.7c0.7-0.4,1.5-0.6,2.4-0.6c0.9,0,1.7,0.2,2.4,0.5c0.6,0.4,1.2,0.9,1.5,1.7c0.4,0.7,0.6,1.6,0.7,2.7h-2.5
				c0-0.6-0.2-1-0.3-1.4c-0.2-0.4-0.4-0.7-0.7-0.8c-0.3-0.2-0.6-0.3-1-0.3c-0.4,0-0.8,0.1-1.1,0.3c-0.3,0.2-0.5,0.5-0.7,0.8
				c-0.2,0.4-0.3,0.8-0.3,1.3v6.1c0,0.5,0.1,0.9,0.3,1.3c0.2,0.4,0.4,0.6,0.7,0.8c0.3,0.2,0.7,0.3,1.1,0.3c0.4,0,0.7-0.1,1-0.3
				s0.5-0.5,0.7-0.8c0.2-0.4,0.3-0.8,0.3-1.4h2.5c-0.1,1.1-0.3,2-0.7,2.7c-0.4,0.7-0.9,1.3-1.5,1.7c-0.7,0.4-1.4,0.5-2.4,0.5
				C71.8,94.6,71,94.4,70.3,94z"/>
			<path class="st1" d="M80.9,94.4h-2.5V78.9h2.5V94.4z"/>
			<path class="st1" d="M84.9,94c-0.7-0.4-1.3-0.9-1.6-1.6c-0.4-0.7-0.6-1.5-0.6-2.5v-6.3c0-1,0.2-1.8,0.6-2.5
				c0.4-0.7,0.9-1.3,1.6-1.6s1.5-0.6,2.5-0.6s1.8,0.2,2.5,0.6s1.3,0.9,1.6,1.6c0.4,0.7,0.6,1.5,0.6,2.5v6.3c0,1-0.2,1.8-0.6,2.5
				c-0.4,0.7-0.9,1.3-1.6,1.6s-1.5,0.6-2.5,0.6S85.6,94.4,84.9,94z M88.5,91.9c0.3-0.2,0.6-0.5,0.8-0.8s0.3-0.8,0.3-1.3v-6.3
				c0-0.5-0.1-0.9-0.3-1.2c-0.2-0.4-0.4-0.6-0.8-0.8c-0.3-0.2-0.7-0.3-1.2-0.3s-0.9,0.1-1.2,0.3s-0.6,0.5-0.8,0.8
				c-0.2,0.4-0.3,0.8-0.3,1.2v6.3c0,0.5,0.1,0.9,0.3,1.3s0.4,0.6,0.8,0.8c0.3,0.2,0.7,0.3,1.2,0.3S88.2,92.1,88.5,91.9z"/>
			<path class="st1" d="M95.4,94.2c-0.6-0.3-1.2-0.6-1.6-1.1c-0.4-0.5-0.7-1.1-0.9-1.8l2.3-1c0.2,0.7,0.5,1.2,0.9,1.5
				c0.4,0.3,1,0.5,1.6,0.5c0.7,0,1.3-0.2,1.7-0.5s0.6-0.8,0.6-1.3v-0.7c0-0.4-0.1-0.7-0.3-1s-0.5-0.5-0.8-0.6
				c-0.3-0.1-0.8-0.3-1.4-0.5c0,0,0,0,0,0c0,0,0,0,0,0l-0.1,0c-0.9-0.2-1.5-0.5-2.1-0.7s-1-0.7-1.4-1.2c-0.4-0.6-0.6-1.3-0.6-2.2
				v-0.4c0-0.9,0.2-1.6,0.6-2.3s0.9-1.1,1.6-1.4c0.7-0.3,1.5-0.5,2.5-0.5c0.7,0,1.4,0.1,2,0.4c0.6,0.2,1.1,0.6,1.4,1.1
				c0.4,0.5,0.7,1.1,0.9,1.8l-2.2,1c-0.2-0.6-0.5-1.1-0.9-1.4c-0.4-0.3-0.8-0.5-1.3-0.5c-0.7,0-1.2,0.1-1.6,0.4
				c-0.4,0.3-0.6,0.7-0.6,1.3v0.5c0,0.4,0.1,0.8,0.3,1s0.5,0.5,0.9,0.6c0.3,0.1,0.8,0.3,1.4,0.5c0,0,0.1,0,0.1,0c0,0,0.1,0,0.1,0
				c0,0,0.1,0,0.1,0c0,0,0.1,0,0.1,0c0.8,0.2,1.4,0.5,1.9,0.8c0.5,0.3,0.9,0.7,1.3,1.2c0.4,0.5,0.5,1.3,0.5,2.1v0.7
				c0,0.9-0.2,1.6-0.6,2.3c-0.4,0.6-0.9,1.1-1.6,1.4s-1.6,0.5-2.6,0.5C96.8,94.6,96.1,94.4,95.4,94.2z"/>
		</g>
	</g>
	<line class="st2" x1="21.3" y1="7" x2="21.3" y2="70.6"/>
	<path class="st1" d="M10,91H7.3c-0.6,0-1.2-0.5-1.2-1.2v-7.2c0-0.6,0.5-1.2,1.2-1.2H10c0.3,0,0.6,0.1,0.8,0.3l4,3.9
		c0.5,0.5,0.5,1.3-0.1,1.7l-3.9,3.3C10.6,90.9,10.3,91,10,91z"/>
	<g>
		<g>
			<path class="st0" d="M94.8,53.8l3.6-9.1l-2-0.8l-3.9,9.9h-0.3V41.2h-2.1V24.4h-4.2v-4.2h-2.1v4.2h-2.1v-6.3h-2.1v6.3h-2.1v-4.2
				h-2.1v4.2h-4.2V37H67v5.4c-2.5-3-5.9-5.3-9.7-6.3l-0.5-1.4c1.5-0.4,2.8-1.5,3.4-2.9h0.4c2.3,0,4.2-1.9,4.2-4.2v-5.3
				c1.2,0,2.1-0.9,2.1-2.1v-2.1c0-1.2-0.9-2.1-2.1-2.1h-0.2c-1-6.1-6.2-10.5-12.4-10.5S40.8,9.9,39.8,16h-0.2
				c-1.2,0-2.1,0.9-2.1,2.1v2.1c0,1.2,0.9,2.1,2.1,2.1v5.3c0,2.3,1.9,4.2,4.2,4.2h0.4c0.6,1.4,1.9,2.5,3.4,2.9l-0.5,1.4
				c-8.2,2.2-13.9,9.5-13.9,18.1v0.7c0,4.5,2.6,8.4,6.3,10.3v5.5h31.5v-8.4h3.3c0.5,2.4,2.6,4.2,5.2,4.2s4.7-1.8,5.2-4.2H90
				c4.2,0,7.8-3,8.5-7.2l0.2-1.2L94.8,53.8z M81.7,53.8V43.3h8.4v10.5H81.7z M73.3,26.5H88v14.7h-6.3V37h-8.4V26.5z M79.6,39.1v14.7
				H69.1V39.1H79.6z M67,46.1v7.7h-0.3L62.7,44l-2,0.8l3.6,9.1h-3.9l0.2,1.2c0.3,1.7,1,3.2,2.1,4.3v9.2h-5.3v-2.1
				c1.7,0,3.2-1.4,3.2-3.2s-1.4-3.2-3.2-3.2V38.4C61.5,39.7,64.9,42.4,67,46.1L67,46.1z M54.6,34.9l0.6,1.9l-3,4.6l-3-4.6l0.6-1.9
				H54.6z M55.4,45.6l-1.9-2.3l1.9-2.8V45.6z M49.1,45.6v-5.1l1.9,2.8L49.1,45.6z M49.1,48.9l3.2-3.9l3.2,3.9v9.3
				c-0.3-0.1-0.7-0.2-1.1-0.2h-1.2c-0.8,0-1.6,0.3-2.2,0.9L49.8,60l-0.7-0.2V48.9z M51.2,61.6l1.2-1.2c0.2-0.2,0.5-0.3,0.7-0.3h1.2
				c0.6,0,1.1,0.5,1.1,1.1v1.1h2.1c0.6,0,1.1,0.5,1.1,1.1s-0.5,1.1-1.1,1.1h-6.3V61.6z M55.4,66.4v2.1h-6.3v-2.1H55.4z M60.7,29.6
				v-4.2c1.2,0,2.1,0.9,2.1,2.1S61.8,29.6,60.7,29.6z M62.8,23.9c-0.6-0.4-1.3-0.6-2.1-0.6v-1.1h2.1V23.9z M62.5,16h-7.1V8
				C59,9.1,61.8,12.1,62.5,16z M53.3,7.6V16h-2.1V7.6c0.3,0,0.7-0.1,1.1-0.1S53,7.6,53.3,7.6z M49.1,8V16h-7.1
				C42.7,12.1,45.5,9.1,49.1,8z M39.6,18.1L39.6,18.1h25.2v2.1H39.6L39.6,18.1z M43.8,22.3v1.1c-0.8,0-1.5,0.2-2.1,0.6v-1.6H43.8z
				 M41.7,27.5c0-1.2,0.9-2.1,2.1-2.1v4.2C42.7,29.6,41.7,28.7,41.7,27.5z M45.9,29.6v-7.4h12.6v7.4c0,1.7-1.4,3.2-3.2,3.2h-6.3
				C47.4,32.8,45.9,31.4,45.9,29.6z M35.4,54.9v-0.7c0-7.3,4.7-13.6,11.6-15.8v21l-1.1-0.3c-2.4-0.5-4.1-2.7-4.1-5.1v-4.4h-2.1V54
				c0,3.5,2.4,6.4,5.8,7.2l3.7,0.8v2.3h-4.2C39.7,64.3,35.4,60.1,35.4,54.9z M41.7,66c1,0.3,2.1,0.4,3.2,0.4H47v2.1h-5.3V66z
				 M64.9,68.5v-7.5c1.2,0.7,2.7,1.1,4.2,1.1v6.3H64.9z M79.6,64.3c-1.7,0-3.2-1.4-3.2-3.2c0-0.6,0.5-1.1,1.1-1.1h4.2
				c0.6,0,1.1,0.5,1.1,1.1C82.7,62.9,81.3,64.3,79.6,64.3z M90,60.1h-5.4c-0.4-1.2-1.6-2.1-3-2.1h-4.2c-1.4,0-2.5,0.9-3,2.1h-5.4
				c-2.8,0-5.1-1.7-6.1-4.2h33C95.2,58.4,92.8,60.1,90,60.1L90,60.1z"/>
			<path class="st0" d="M83.8,28.6h2.1v2.1h-2.1V28.6z"/>
			<path class="st0" d="M79.6,28.6h2.1v2.1h-2.1V28.6z"/>
			<path class="st0" d="M75.4,28.6h2.1v2.1h-2.1V28.6z"/>
			<path class="st0" d="M83.8,32.8h2.1v2.1h-2.1V32.8z"/>
			<path class="st0" d="M75.4,32.8h2.1v2.1h-2.1V32.8z"/>
			<path class="st0" d="M79.6,32.8h2.1v2.1h-2.1V32.8z"/>
			<path class="st0" d="M83.8,37h2.1v2.1h-2.1V37z"/>
			<path class="st0" d="M71.2,41.2h2.1v10.5h-2.1V41.2z"/>
			<path class="st0" d="M75.4,41.2h2.1v10.5h-2.1V41.2z"/>
			<path class="st0" d="M83.8,45.4H88v2.1h-4.2V45.4z"/>
			<path class="st0" d="M83.8,49.6H88v2.1h-4.2V49.6z"/>
		</g>
	</g>
</g>
</svg>
